<svg width="1217" height="70" viewBox="0 0 1217 70" fill="none" xmlns="http://www.w3.org/2000/svg">
<path d="M11.8066 63H7.69043V47.4873C6.18652 48.8936 4.41406 49.9336 2.37305 50.6074V46.8721C3.44727 46.5205 4.61426 45.8564 5.87402 44.8799C7.13379 43.8936 7.99805 42.7461 8.4668 41.4375H11.8066V63Z" fill="#004D45"/>
<path d="M144.176 59.1768V63H129.747C129.903 61.5547 130.372 60.1875 131.153 58.8984C131.935 57.5996 133.478 55.8809 135.782 53.7422C137.638 52.0137 138.775 50.8418 139.195 50.2266C139.762 49.377 140.045 48.5371 140.045 47.707C140.045 46.7891 139.796 46.0859 139.298 45.5977C138.81 45.0996 138.131 44.8506 137.262 44.8506C136.402 44.8506 135.719 45.1094 135.211 45.627C134.703 46.1445 134.41 47.0039 134.332 48.2051L130.23 47.7949C130.475 45.5293 131.241 43.9033 132.53 42.917C133.819 41.9307 135.431 41.4375 137.364 41.4375C139.483 41.4375 141.148 42.0088 142.359 43.1514C143.57 44.2939 144.176 45.7148 144.176 47.4141C144.176 48.3809 144 49.3037 143.648 50.1826C143.307 51.0518 142.76 51.9648 142.008 52.9219C141.51 53.5566 140.611 54.4697 139.312 55.6611C138.014 56.8525 137.188 57.6436 136.837 58.0342C136.495 58.4248 136.217 58.8057 136.002 59.1768H144.176ZM147.032 57.4775L151.134 57.0527C151.251 57.9805 151.598 58.7178 152.174 59.2646C152.75 59.8018 153.414 60.0703 154.166 60.0703C155.025 60.0703 155.753 59.7236 156.349 59.0303C156.944 58.3271 157.242 57.2725 157.242 55.8662C157.242 54.5479 156.944 53.5615 156.349 52.9072C155.763 52.2432 154.996 51.9111 154.049 51.9111C152.867 51.9111 151.808 52.4336 150.87 53.4785L147.53 52.9951L149.64 41.8184H160.523V45.6709H152.76L152.115 49.3184C153.033 48.8594 153.971 48.6299 154.928 48.6299C156.754 48.6299 158.302 49.2939 159.571 50.6221C160.841 51.9502 161.476 53.6738 161.476 55.793C161.476 57.5605 160.963 59.1377 159.938 60.5244C158.541 62.4189 156.603 63.3662 154.122 63.3662C152.14 63.3662 150.523 62.834 149.273 61.7695C148.023 60.7051 147.276 59.2744 147.032 57.4775ZM170.631 41.4375C172.711 41.4375 174.337 42.1797 175.509 43.6641C176.905 45.4219 177.604 48.3369 177.604 52.4092C177.604 56.4717 176.9 59.3916 175.494 61.1689C174.332 62.6338 172.711 63.3662 170.631 63.3662C168.541 63.3662 166.856 62.5654 165.577 60.9639C164.298 59.3525 163.658 56.4863 163.658 52.3652C163.658 48.3223 164.361 45.4121 165.768 43.6348C166.93 42.1699 168.551 41.4375 170.631 41.4375ZM170.631 44.8506C170.133 44.8506 169.688 45.0117 169.298 45.334C168.907 45.6465 168.604 46.2129 168.39 47.0332C168.106 48.0977 167.965 49.8896 167.965 52.4092C167.965 54.9287 168.092 56.6621 168.346 57.6094C168.6 58.5469 168.917 59.1719 169.298 59.4844C169.688 59.7969 170.133 59.9531 170.631 59.9531C171.129 59.9531 171.573 59.7969 171.964 59.4844C172.354 59.1621 172.657 58.5908 172.872 57.7705C173.155 56.7158 173.297 54.9287 173.297 52.4092C173.297 49.8896 173.17 48.1611 172.916 47.2236C172.662 46.2764 172.34 45.6465 171.949 45.334C171.568 45.0117 171.129 44.8506 170.631 44.8506Z" fill="#004D45"/>
<path d="M282.333 57.4775L286.435 57.0527C286.552 57.9805 286.898 58.7178 287.475 59.2646C288.051 59.8018 288.715 60.0703 289.467 60.0703C290.326 60.0703 291.054 59.7236 291.649 59.0303C292.245 58.3271 292.543 57.2725 292.543 55.8662C292.543 54.5479 292.245 53.5615 291.649 52.9072C291.063 52.2432 290.297 51.9111 289.35 51.9111C288.168 51.9111 287.108 52.4336 286.171 53.4785L282.831 52.9951L284.94 41.8184H295.824V45.6709H288.061L287.416 49.3184C288.334 48.8594 289.271 48.6299 290.229 48.6299C292.055 48.6299 293.603 49.2939 294.872 50.6221C296.142 51.9502 296.776 53.6738 296.776 55.793C296.776 57.5605 296.264 59.1377 295.238 60.5244C293.842 62.4189 291.903 63.3662 289.423 63.3662C287.44 63.3662 285.824 62.834 284.574 61.7695C283.324 60.7051 282.577 59.2744 282.333 57.4775ZM305.932 41.4375C308.012 41.4375 309.638 42.1797 310.81 43.6641C312.206 45.4219 312.904 48.3369 312.904 52.4092C312.904 56.4717 312.201 59.3916 310.795 61.1689C309.633 62.6338 308.012 63.3662 305.932 63.3662C303.842 63.3662 302.157 62.5654 300.878 60.9639C299.599 59.3525 298.959 56.4863 298.959 52.3652C298.959 48.3223 299.662 45.4121 301.068 43.6348C302.23 42.1699 303.852 41.4375 305.932 41.4375ZM305.932 44.8506C305.434 44.8506 304.989 45.0117 304.599 45.334C304.208 45.6465 303.905 46.2129 303.69 47.0332C303.407 48.0977 303.266 49.8896 303.266 52.4092C303.266 54.9287 303.393 56.6621 303.646 57.6094C303.9 58.5469 304.218 59.1719 304.599 59.4844C304.989 59.7969 305.434 59.9531 305.932 59.9531C306.43 59.9531 306.874 59.7969 307.265 59.4844C307.655 59.1621 307.958 58.5908 308.173 57.7705C308.456 56.7158 308.598 54.9287 308.598 52.4092C308.598 49.8896 308.471 48.1611 308.217 47.2236C307.963 46.2764 307.641 45.6465 307.25 45.334C306.869 45.0117 306.43 44.8506 305.932 44.8506ZM322.631 41.4375C324.711 41.4375 326.337 42.1797 327.509 43.6641C328.905 45.4219 329.604 48.3369 329.604 52.4092C329.604 56.4717 328.9 59.3916 327.494 61.1689C326.332 62.6338 324.711 63.3662 322.631 63.3662C320.541 63.3662 318.856 62.5654 317.577 60.9639C316.298 59.3525 315.658 56.4863 315.658 52.3652C315.658 48.3223 316.361 45.4121 317.768 43.6348C318.93 42.1699 320.551 41.4375 322.631 41.4375ZM322.631 44.8506C322.133 44.8506 321.688 45.0117 321.298 45.334C320.907 45.6465 320.604 46.2129 320.39 47.0332C320.106 48.0977 319.965 49.8896 319.965 52.4092C319.965 54.9287 320.092 56.6621 320.346 57.6094C320.6 58.5469 320.917 59.1719 321.298 59.4844C321.688 59.7969 322.133 59.9531 322.631 59.9531C323.129 59.9531 323.573 59.7969 323.964 59.4844C324.354 59.1621 324.657 58.5908 324.872 57.7705C325.155 56.7158 325.297 54.9287 325.297 52.4092C325.297 49.8896 325.17 48.1611 324.916 47.2236C324.662 46.2764 324.34 45.6465 323.949 45.334C323.568 45.0117 323.129 44.8506 322.631 44.8506Z" fill="#004D45"/>
<path d="M434.362 58.0342L438.347 57.5947C438.444 58.4053 438.698 59.0059 439.108 59.3965C439.519 59.7871 440.061 59.9824 440.734 59.9824C441.584 59.9824 442.307 59.5918 442.902 58.8105C443.498 58.0293 443.879 56.4082 444.045 53.9473C443.01 55.1484 441.716 55.749 440.163 55.749C438.474 55.749 437.014 55.0996 435.783 53.8008C434.562 52.4922 433.952 50.793 433.952 48.7031C433.952 46.5254 434.597 44.7725 435.886 43.4443C437.185 42.1064 438.835 41.4375 440.837 41.4375C443.015 41.4375 444.802 42.2822 446.198 43.9717C447.595 45.6514 448.293 48.4199 448.293 52.2773C448.293 56.2031 447.565 59.0352 446.11 60.7734C444.655 62.5117 442.761 63.3809 440.427 63.3809C438.747 63.3809 437.39 62.9365 436.354 62.0479C435.319 61.1494 434.655 59.8115 434.362 58.0342ZM443.679 49.04C443.679 47.7119 443.371 46.6816 442.756 45.9492C442.15 45.2168 441.447 44.8506 440.646 44.8506C439.885 44.8506 439.25 45.1533 438.742 45.7588C438.244 46.3545 437.995 47.3359 437.995 48.7031C437.995 50.0898 438.269 51.1104 438.815 51.7646C439.362 52.4092 440.046 52.7314 440.866 52.7314C441.657 52.7314 442.321 52.4189 442.858 51.7939C443.405 51.1689 443.679 50.251 443.679 49.04ZM457.932 41.4375C460.012 41.4375 461.638 42.1797 462.81 43.6641C464.206 45.4219 464.904 48.3369 464.904 52.4092C464.904 56.4717 464.201 59.3916 462.795 61.1689C461.633 62.6338 460.012 63.3662 457.932 63.3662C455.842 63.3662 454.157 62.5654 452.878 60.9639C451.599 59.3525 450.959 56.4863 450.959 52.3652C450.959 48.3223 451.662 45.4121 453.068 43.6348C454.23 42.1699 455.852 41.4375 457.932 41.4375ZM457.932 44.8506C457.434 44.8506 456.989 45.0117 456.599 45.334C456.208 45.6465 455.905 46.2129 455.69 47.0332C455.407 48.0977 455.266 49.8896 455.266 52.4092C455.266 54.9287 455.393 56.6621 455.646 57.6094C455.9 58.5469 456.218 59.1719 456.599 59.4844C456.989 59.7969 457.434 59.9531 457.932 59.9531C458.43 59.9531 458.874 59.7969 459.265 59.4844C459.655 59.1621 459.958 58.5908 460.173 57.7705C460.456 56.7158 460.598 54.9287 460.598 52.4092C460.598 49.8896 460.471 48.1611 460.217 47.2236C459.963 46.2764 459.641 45.6465 459.25 45.334C458.869 45.0117 458.43 44.8506 457.932 44.8506ZM474.631 41.4375C476.711 41.4375 478.337 42.1797 479.509 43.6641C480.905 45.4219 481.604 48.3369 481.604 52.4092C481.604 56.4717 480.9 59.3916 479.494 61.1689C478.332 62.6338 476.711 63.3662 474.631 63.3662C472.541 63.3662 470.856 62.5654 469.577 60.9639C468.298 59.3525 467.658 56.4863 467.658 52.3652C467.658 48.3223 468.361 45.4121 469.768 43.6348C470.93 42.1699 472.551 41.4375 474.631 41.4375ZM474.631 44.8506C474.133 44.8506 473.688 45.0117 473.298 45.334C472.907 45.6465 472.604 46.2129 472.39 47.0332C472.106 48.0977 471.965 49.8896 471.965 52.4092C471.965 54.9287 472.092 56.6621 472.346 57.6094C472.6 58.5469 472.917 59.1719 473.298 59.4844C473.688 59.7969 474.133 59.9531 474.631 59.9531C475.129 59.9531 475.573 59.7969 475.964 59.4844C476.354 59.1621 476.657 58.5908 476.872 57.7705C477.155 56.7158 477.297 54.9287 477.297 52.4092C477.297 49.8896 477.17 48.1611 476.916 47.2236C476.662 46.2764 476.34 45.6465 475.949 45.334C475.568 45.0117 475.129 44.8506 474.631 44.8506Z" fill="#004D45"/>
<path d="M587.807 63H583.69V47.4873C582.187 48.8936 580.414 49.9336 578.373 50.6074V46.8721C579.447 46.5205 580.614 45.8564 581.874 44.8799C583.134 43.8936 583.998 42.7461 584.467 41.4375H587.807V63ZM600.932 41.4375C603.012 41.4375 604.638 42.1797 605.81 43.6641C607.206 45.4219 607.904 48.3369 607.904 52.4092C607.904 56.4717 607.201 59.3916 605.795 61.1689C604.633 62.6338 603.012 63.3662 600.932 63.3662C598.842 63.3662 597.157 62.5654 595.878 60.9639C594.599 59.3525 593.959 56.4863 593.959 52.3652C593.959 48.3223 594.662 45.4121 596.068 43.6348C597.23 42.1699 598.852 41.4375 600.932 41.4375ZM600.932 44.8506C600.434 44.8506 599.989 45.0117 599.599 45.334C599.208 45.6465 598.905 46.2129 598.69 47.0332C598.407 48.0977 598.266 49.8896 598.266 52.4092C598.266 54.9287 598.393 56.6621 598.646 57.6094C598.9 58.5469 599.218 59.1719 599.599 59.4844C599.989 59.7969 600.434 59.9531 600.932 59.9531C601.43 59.9531 601.874 59.7969 602.265 59.4844C602.655 59.1621 602.958 58.5908 603.173 57.7705C603.456 56.7158 603.598 54.9287 603.598 52.4092C603.598 49.8896 603.471 48.1611 603.217 47.2236C602.963 46.2764 602.641 45.6465 602.25 45.334C601.869 45.0117 601.43 44.8506 600.932 44.8506ZM617.631 41.4375C619.711 41.4375 621.337 42.1797 622.509 43.6641C623.905 45.4219 624.604 48.3369 624.604 52.4092C624.604 56.4717 623.9 59.3916 622.494 61.1689C621.332 62.6338 619.711 63.3662 617.631 63.3662C615.541 63.3662 613.856 62.5654 612.577 60.9639C611.298 59.3525 610.658 56.4863 610.658 52.3652C610.658 48.3223 611.361 45.4121 612.768 43.6348C613.93 42.1699 615.551 41.4375 617.631 41.4375ZM617.631 44.8506C617.133 44.8506 616.688 45.0117 616.298 45.334C615.907 45.6465 615.604 46.2129 615.39 47.0332C615.106 48.0977 614.965 49.8896 614.965 52.4092C614.965 54.9287 615.092 56.6621 615.346 57.6094C615.6 58.5469 615.917 59.1719 616.298 59.4844C616.688 59.7969 617.133 59.9531 617.631 59.9531C618.129 59.9531 618.573 59.7969 618.964 59.4844C619.354 59.1621 619.657 58.5908 619.872 57.7705C620.155 56.7158 620.297 54.9287 620.297 52.4092C620.297 49.8896 620.17 48.1611 619.916 47.2236C619.662 46.2764 619.34 45.6465 618.949 45.334C618.568 45.0117 618.129 44.8506 617.631 44.8506ZM634.33 41.4375C636.41 41.4375 638.036 42.1797 639.208 43.6641C640.604 45.4219 641.303 48.3369 641.303 52.4092C641.303 56.4717 640.6 59.3916 639.193 61.1689C638.031 62.6338 636.41 63.3662 634.33 63.3662C632.24 63.3662 630.556 62.5654 629.276 60.9639C627.997 59.3525 627.357 56.4863 627.357 52.3652C627.357 48.3223 628.061 45.4121 629.467 43.6348C630.629 42.1699 632.25 41.4375 634.33 41.4375ZM634.33 44.8506C633.832 44.8506 633.388 45.0117 632.997 45.334C632.606 45.6465 632.304 46.2129 632.089 47.0332C631.806 48.0977 631.664 49.8896 631.664 52.4092C631.664 54.9287 631.791 56.6621 632.045 57.6094C632.299 58.5469 632.616 59.1719 632.997 59.4844C633.388 59.7969 633.832 59.9531 634.33 59.9531C634.828 59.9531 635.272 59.7969 635.663 59.4844C636.054 59.1621 636.356 58.5908 636.571 57.7705C636.854 56.7158 636.996 54.9287 636.996 52.4092C636.996 49.8896 636.869 48.1611 636.615 47.2236C636.361 46.2764 636.039 45.6465 635.648 45.334C635.268 45.0117 634.828 44.8506 634.33 44.8506Z" fill="#004D45"/>
<path d="M740.807 63H736.69V47.4873C735.187 48.8936 733.414 49.9336 731.373 50.6074V46.8721C732.447 46.5205 733.614 45.8564 734.874 44.8799C736.134 43.8936 736.998 42.7461 737.467 41.4375H740.807V63ZM760.875 59.1768V63H746.446C746.603 61.5547 747.071 60.1875 747.853 58.8984C748.634 57.5996 750.177 55.8809 752.481 53.7422C754.337 52.0137 755.475 50.8418 755.895 50.2266C756.461 49.377 756.744 48.5371 756.744 47.707C756.744 46.7891 756.495 46.0859 755.997 45.5977C755.509 45.0996 754.83 44.8506 753.961 44.8506C753.102 44.8506 752.418 45.1094 751.91 45.627C751.402 46.1445 751.109 47.0039 751.031 48.2051L746.93 47.7949C747.174 45.5293 747.94 43.9033 749.229 42.917C750.519 41.9307 752.13 41.4375 754.063 41.4375C756.183 41.4375 757.848 42.0088 759.059 43.1514C760.27 44.2939 760.875 45.7148 760.875 47.4141C760.875 48.3809 760.699 49.3037 760.348 50.1826C760.006 51.0518 759.459 51.9648 758.707 52.9219C758.209 53.5566 757.311 54.4697 756.012 55.6611C754.713 56.8525 753.888 57.6436 753.536 58.0342C753.194 58.4248 752.916 58.8057 752.701 59.1768H760.875ZM763.731 57.4775L767.833 57.0527C767.95 57.9805 768.297 58.7178 768.873 59.2646C769.449 59.8018 770.113 60.0703 770.865 60.0703C771.725 60.0703 772.452 59.7236 773.048 59.0303C773.644 58.3271 773.941 57.2725 773.941 55.8662C773.941 54.5479 773.644 53.5615 773.048 52.9072C772.462 52.2432 771.695 51.9111 770.748 51.9111C769.566 51.9111 768.507 52.4336 767.569 53.4785L764.229 52.9951L766.339 41.8184H777.223V45.6709H769.459L768.814 49.3184C769.732 48.8594 770.67 48.6299 771.627 48.6299C773.453 48.6299 775.001 49.2939 776.271 50.6221C777.54 51.9502 778.175 53.6738 778.175 55.793C778.175 57.5605 777.662 59.1377 776.637 60.5244C775.24 62.4189 773.302 63.3662 770.821 63.3662C768.839 63.3662 767.223 62.834 765.973 61.7695C764.723 60.7051 763.976 59.2744 763.731 57.4775ZM787.33 41.4375C789.41 41.4375 791.036 42.1797 792.208 43.6641C793.604 45.4219 794.303 48.3369 794.303 52.4092C794.303 56.4717 793.6 59.3916 792.193 61.1689C791.031 62.6338 789.41 63.3662 787.33 63.3662C785.24 63.3662 783.556 62.5654 782.276 60.9639C780.997 59.3525 780.357 56.4863 780.357 52.3652C780.357 48.3223 781.061 45.4121 782.467 43.6348C783.629 42.1699 785.25 41.4375 787.33 41.4375ZM787.33 44.8506C786.832 44.8506 786.388 45.0117 785.997 45.334C785.606 45.6465 785.304 46.2129 785.089 47.0332C784.806 48.0977 784.664 49.8896 784.664 52.4092C784.664 54.9287 784.791 56.6621 785.045 57.6094C785.299 58.5469 785.616 59.1719 785.997 59.4844C786.388 59.7969 786.832 59.9531 787.33 59.9531C787.828 59.9531 788.272 59.7969 788.663 59.4844C789.054 59.1621 789.356 58.5908 789.571 57.7705C789.854 56.7158 789.996 54.9287 789.996 52.4092C789.996 49.8896 789.869 48.1611 789.615 47.2236C789.361 46.2764 789.039 45.6465 788.648 45.334C788.268 45.0117 787.828 44.8506 787.33 44.8506Z" fill="#004D45"/>
<path d="M892.807 63H888.69V47.4873C887.187 48.8936 885.414 49.9336 883.373 50.6074V46.8721C884.447 46.5205 885.614 45.8564 886.874 44.8799C888.134 43.8936 888.998 42.7461 889.467 41.4375H892.807V63ZM899.032 57.4775L903.134 57.0527C903.251 57.9805 903.598 58.7178 904.174 59.2646C904.75 59.8018 905.414 60.0703 906.166 60.0703C907.025 60.0703 907.753 59.7236 908.349 59.0303C908.944 58.3271 909.242 57.2725 909.242 55.8662C909.242 54.5479 908.944 53.5615 908.349 52.9072C907.763 52.2432 906.996 51.9111 906.049 51.9111C904.867 51.9111 903.808 52.4336 902.87 53.4785L899.53 52.9951L901.64 41.8184H912.523V45.6709H904.76L904.115 49.3184C905.033 48.8594 905.971 48.6299 906.928 48.6299C908.754 48.6299 910.302 49.2939 911.571 50.6221C912.841 51.9502 913.476 53.6738 913.476 55.793C913.476 57.5605 912.963 59.1377 911.938 60.5244C910.541 62.4189 908.603 63.3662 906.122 63.3662C904.14 63.3662 902.523 62.834 901.273 61.7695C900.023 60.7051 899.276 59.2744 899.032 57.4775ZM922.631 41.4375C924.711 41.4375 926.337 42.1797 927.509 43.6641C928.905 45.4219 929.604 48.3369 929.604 52.4092C929.604 56.4717 928.9 59.3916 927.494 61.1689C926.332 62.6338 924.711 63.3662 922.631 63.3662C920.541 63.3662 918.856 62.5654 917.577 60.9639C916.298 59.3525 915.658 56.4863 915.658 52.3652C915.658 48.3223 916.361 45.4121 917.768 43.6348C918.93 42.1699 920.551 41.4375 922.631 41.4375ZM922.631 44.8506C922.133 44.8506 921.688 45.0117 921.298 45.334C920.907 45.6465 920.604 46.2129 920.39 47.0332C920.106 48.0977 919.965 49.8896 919.965 52.4092C919.965 54.9287 920.092 56.6621 920.346 57.6094C920.6 58.5469 920.917 59.1719 921.298 59.4844C921.688 59.7969 922.133 59.9531 922.631 59.9531C923.129 59.9531 923.573 59.7969 923.964 59.4844C924.354 59.1621 924.657 58.5908 924.872 57.7705C925.155 56.7158 925.297 54.9287 925.297 52.4092C925.297 49.8896 925.17 48.1611 924.916 47.2236C924.662 46.2764 924.34 45.6465 923.949 45.334C923.568 45.0117 923.129 44.8506 922.631 44.8506ZM939.33 41.4375C941.41 41.4375 943.036 42.1797 944.208 43.6641C945.604 45.4219 946.303 48.3369 946.303 52.4092C946.303 56.4717 945.6 59.3916 944.193 61.1689C943.031 62.6338 941.41 63.3662 939.33 63.3662C937.24 63.3662 935.556 62.5654 934.276 60.9639C932.997 59.3525 932.357 56.4863 932.357 52.3652C932.357 48.3223 933.061 45.4121 934.467 43.6348C935.629 42.1699 937.25 41.4375 939.33 41.4375ZM939.33 44.8506C938.832 44.8506 938.388 45.0117 937.997 45.334C937.606 45.6465 937.304 46.2129 937.089 47.0332C936.806 48.0977 936.664 49.8896 936.664 52.4092C936.664 54.9287 936.791 56.6621 937.045 57.6094C937.299 58.5469 937.616 59.1719 937.997 59.4844C938.388 59.7969 938.832 59.9531 939.33 59.9531C939.828 59.9531 940.272 59.7969 940.663 59.4844C941.054 59.1621 941.356 58.5908 941.571 57.7705C941.854 56.7158 941.996 54.9287 941.996 52.4092C941.996 49.8896 941.869 48.1611 941.615 47.2236C941.361 46.2764 941.039 45.6465 940.648 45.334C940.268 45.0117 939.828 44.8506 939.33 44.8506Z" fill="#004D45"/>
<path d="M1044.81 63H1040.69V47.4873C1039.19 48.8936 1037.41 49.9336 1035.37 50.6074V46.8721C1036.45 46.5205 1037.61 45.8564 1038.87 44.8799C1040.13 43.8936 1041 42.7461 1041.47 41.4375H1044.81V63ZM1050.97 45.6416V41.8184H1065.05V44.8066C1063.89 45.9492 1062.71 47.5898 1061.51 49.7285C1060.3 51.8672 1059.39 54.1426 1058.75 56.5547C1058.13 58.957 1057.82 61.1055 1057.83 63H1053.86C1053.93 60.0312 1054.54 57.0039 1055.69 53.918C1056.85 50.832 1058.4 48.0732 1060.33 45.6416H1050.97ZM1067.73 57.4775L1071.83 57.0527C1071.95 57.9805 1072.3 58.7178 1072.87 59.2646C1073.45 59.8018 1074.11 60.0703 1074.87 60.0703C1075.72 60.0703 1076.45 59.7236 1077.05 59.0303C1077.64 58.3271 1077.94 57.2725 1077.94 55.8662C1077.94 54.5479 1077.64 53.5615 1077.05 52.9072C1076.46 52.2432 1075.7 51.9111 1074.75 51.9111C1073.57 51.9111 1072.51 52.4336 1071.57 53.4785L1068.23 52.9951L1070.34 41.8184H1081.22V45.6709H1073.46L1072.81 49.3184C1073.73 48.8594 1074.67 48.6299 1075.63 48.6299C1077.45 48.6299 1079 49.2939 1080.27 50.6221C1081.54 51.9502 1082.17 53.6738 1082.17 55.793C1082.17 57.5605 1081.66 59.1377 1080.64 60.5244C1079.24 62.4189 1077.3 63.3662 1074.82 63.3662C1072.84 63.3662 1071.22 62.834 1069.97 61.7695C1068.72 60.7051 1067.98 59.2744 1067.73 57.4775ZM1091.33 41.4375C1093.41 41.4375 1095.04 42.1797 1096.21 43.6641C1097.6 45.4219 1098.3 48.3369 1098.3 52.4092C1098.3 56.4717 1097.6 59.3916 1096.19 61.1689C1095.03 62.6338 1093.41 63.3662 1091.33 63.3662C1089.24 63.3662 1087.56 62.5654 1086.28 60.9639C1085 59.3525 1084.36 56.4863 1084.36 52.3652C1084.36 48.3223 1085.06 45.4121 1086.47 43.6348C1087.63 42.1699 1089.25 41.4375 1091.33 41.4375ZM1091.33 44.8506C1090.83 44.8506 1090.39 45.0117 1090 45.334C1089.61 45.6465 1089.3 46.2129 1089.09 47.0332C1088.81 48.0977 1088.66 49.8896 1088.66 52.4092C1088.66 54.9287 1088.79 56.6621 1089.04 57.6094C1089.3 58.5469 1089.62 59.1719 1090 59.4844C1090.39 59.7969 1090.83 59.9531 1091.33 59.9531C1091.83 59.9531 1092.27 59.7969 1092.66 59.4844C1093.05 59.1621 1093.36 58.5908 1093.57 57.7705C1093.85 56.7158 1094 54.9287 1094 52.4092C1094 49.8896 1093.87 48.1611 1093.62 47.2236C1093.36 46.2764 1093.04 45.6465 1092.65 45.334C1092.27 45.0117 1091.83 44.8506 1091.33 44.8506Z" fill="#004D45"/>
<path d="M1165.18 59.1768V63H1150.75C1150.9 61.5547 1151.37 60.1875 1152.15 58.8984C1152.93 57.5996 1154.48 55.8809 1156.78 53.7422C1158.64 52.0137 1159.78 50.8418 1160.2 50.2266C1160.76 49.377 1161.04 48.5371 1161.04 47.707C1161.04 46.7891 1160.8 46.0859 1160.3 45.5977C1159.81 45.0996 1159.13 44.8506 1158.26 44.8506C1157.4 44.8506 1156.72 45.1094 1156.21 45.627C1155.7 46.1445 1155.41 47.0039 1155.33 48.2051L1151.23 47.7949C1151.47 45.5293 1152.24 43.9033 1153.53 42.917C1154.82 41.9307 1156.43 41.4375 1158.36 41.4375C1160.48 41.4375 1162.15 42.0088 1163.36 43.1514C1164.57 44.2939 1165.18 45.7148 1165.18 47.4141C1165.18 48.3809 1165 49.3037 1164.65 50.1826C1164.31 51.0518 1163.76 51.9648 1163.01 52.9219C1162.51 53.5566 1161.61 54.4697 1160.31 55.6611C1159.01 56.8525 1158.19 57.6436 1157.84 58.0342C1157.5 58.4248 1157.22 58.8057 1157 59.1768H1165.18ZM1174.93 41.4375C1177.01 41.4375 1178.64 42.1797 1179.81 43.6641C1181.21 45.4219 1181.9 48.3369 1181.9 52.4092C1181.9 56.4717 1181.2 59.3916 1179.79 61.1689C1178.63 62.6338 1177.01 63.3662 1174.93 63.3662C1172.84 63.3662 1171.16 62.5654 1169.88 60.9639C1168.6 59.3525 1167.96 56.4863 1167.96 52.3652C1167.96 48.3223 1168.66 45.4121 1170.07 43.6348C1171.23 42.1699 1172.85 41.4375 1174.93 41.4375ZM1174.93 44.8506C1174.43 44.8506 1173.99 45.0117 1173.6 45.334C1173.21 45.6465 1172.91 46.2129 1172.69 47.0332C1172.41 48.0977 1172.27 49.8896 1172.27 52.4092C1172.27 54.9287 1172.39 56.6621 1172.65 57.6094C1172.9 58.5469 1173.22 59.1719 1173.6 59.4844C1173.99 59.7969 1174.43 59.9531 1174.93 59.9531C1175.43 59.9531 1175.87 59.7969 1176.26 59.4844C1176.66 59.1621 1176.96 58.5908 1177.17 57.7705C1177.46 56.7158 1177.6 54.9287 1177.6 52.4092C1177.6 49.8896 1177.47 48.1611 1177.22 47.2236C1176.96 46.2764 1176.64 45.6465 1176.25 45.334C1175.87 45.0117 1175.43 44.8506 1174.93 44.8506ZM1191.63 41.4375C1193.71 41.4375 1195.34 42.1797 1196.51 43.6641C1197.91 45.4219 1198.6 48.3369 1198.6 52.4092C1198.6 56.4717 1197.9 59.3916 1196.49 61.1689C1195.33 62.6338 1193.71 63.3662 1191.63 63.3662C1189.54 63.3662 1187.86 62.5654 1186.58 60.9639C1185.3 59.3525 1184.66 56.4863 1184.66 52.3652C1184.66 48.3223 1185.36 45.4121 1186.77 43.6348C1187.93 42.1699 1189.55 41.4375 1191.63 41.4375ZM1191.63 44.8506C1191.13 44.8506 1190.69 45.0117 1190.3 45.334C1189.91 45.6465 1189.6 46.2129 1189.39 47.0332C1189.11 48.0977 1188.96 49.8896 1188.96 52.4092C1188.96 54.9287 1189.09 56.6621 1189.35 57.6094C1189.6 58.5469 1189.92 59.1719 1190.3 59.4844C1190.69 59.7969 1191.13 59.9531 1191.63 59.9531C1192.13 59.9531 1192.57 59.7969 1192.96 59.4844C1193.35 59.1621 1193.66 58.5908 1193.87 57.7705C1194.16 56.7158 1194.3 54.9287 1194.3 52.4092C1194.3 49.8896 1194.17 48.1611 1193.92 47.2236C1193.66 46.2764 1193.34 45.6465 1192.95 45.334C1192.57 45.0117 1192.13 44.8506 1191.63 44.8506ZM1208.33 41.4375C1210.41 41.4375 1212.04 42.1797 1213.21 43.6641C1214.6 45.4219 1215.3 48.3369 1215.3 52.4092C1215.3 56.4717 1214.6 59.3916 1213.19 61.1689C1212.03 62.6338 1210.41 63.3662 1208.33 63.3662C1206.24 63.3662 1204.56 62.5654 1203.28 60.9639C1202 59.3525 1201.36 56.4863 1201.36 52.3652C1201.36 48.3223 1202.06 45.4121 1203.47 43.6348C1204.63 42.1699 1206.25 41.4375 1208.33 41.4375ZM1208.33 44.8506C1207.83 44.8506 1207.39 45.0117 1207 45.334C1206.61 45.6465 1206.3 46.2129 1206.09 47.0332C1205.81 48.0977 1205.66 49.8896 1205.66 52.4092C1205.66 54.9287 1205.79 56.6621 1206.04 57.6094C1206.3 58.5469 1206.62 59.1719 1207 59.4844C1207.39 59.7969 1207.83 59.9531 1208.33 59.9531C1208.83 59.9531 1209.27 59.7969 1209.66 59.4844C1210.05 59.1621 1210.36 58.5908 1210.57 57.7705C1210.85 56.7158 1211 54.9287 1211 52.4092C1211 49.8896 1210.87 48.1611 1210.62 47.2236C1210.36 46.2764 1210.04 45.6465 1209.65 45.334C1209.27 45.0117 1208.83 44.8506 1208.33 44.8506Z" fill="#004D45"/>
<line y1="1.5" x2="1217" y2="1.5" stroke="#26A69A" stroke-width="3"/>
<line x1="1.5" y1="18" x2="1.5" y2="2" stroke="#26A69A" stroke-width="3"/>
<line x1="153.5" y1="18" x2="153.5" y2="2" stroke="#26A69A" stroke-width="3"/>
<line x1="305.5" y1="18" x2="305.5" y2="2" stroke="#26A69A" stroke-width="3"/>
<line x1="457.5" y1="18" x2="457.5" y2="2" stroke="#26A69A" stroke-width="3"/>
<line x1="609.5" y1="18" x2="609.5" y2="2" stroke="#26A69A" stroke-width="3"/>
<line x1="761.5" y1="18" x2="761.5" y2="2" stroke="#26A69A" stroke-width="3"/>
<line x1="913.5" y1="18" x2="913.5" y2="2" stroke="#26A69A" stroke-width="3"/>
<line x1="1065.5" y1="18" x2="1065.5" y2="2" stroke="#26A69A" stroke-width="3"/>
<line x1="1215.5" y1="18" x2="1215.5" y2="2" stroke="#26A69A" stroke-width="3"/>
</svg>
