<svg width="1273" height="70" viewBox="0 0 1273 70" fill="none" xmlns="http://www.w3.org/2000/svg">
<path d="M1.12793 57.3018L5.1123 56.8184C5.23926 57.834 5.58105 58.6104 6.1377 59.1475C6.69434 59.6846 7.36816 59.9531 8.15918 59.9531C9.00879 59.9531 9.72168 59.6309 10.2979 58.9863C10.8838 58.3418 11.1768 57.4727 11.1768 56.3789C11.1768 55.3438 10.8984 54.5234 10.3418 53.918C9.78516 53.3125 9.10645 53.0098 8.30566 53.0098C7.77832 53.0098 7.14844 53.1123 6.41602 53.3174L6.87012 49.9629C7.9834 49.9922 8.83301 49.7529 9.41895 49.2451C10.0049 48.7275 10.2979 48.0439 10.2979 47.1943C10.2979 46.4717 10.083 45.8955 9.65332 45.4658C9.22363 45.0361 8.65234 44.8213 7.93945 44.8213C7.23633 44.8213 6.63574 45.0654 6.1377 45.5537C5.63965 46.042 5.33691 46.7549 5.22949 47.6924L1.43555 47.0479C1.69922 45.749 2.09473 44.7139 2.62207 43.9424C3.15918 43.1611 3.90137 42.5508 4.84863 42.1113C5.80566 41.6621 6.875 41.4375 8.05664 41.4375C10.0781 41.4375 11.6992 42.082 12.9199 43.3711C13.9258 44.4258 14.4287 45.6172 14.4287 46.9453C14.4287 48.8301 13.3984 50.334 11.3379 51.457C12.5684 51.7207 13.5498 52.3115 14.2822 53.2295C15.0244 54.1475 15.3955 55.2559 15.3955 56.5547C15.3955 58.4395 14.707 60.0459 13.3301 61.374C11.9531 62.7021 10.2393 63.3662 8.18848 63.3662C6.24512 63.3662 4.63379 62.8096 3.35449 61.6963C2.0752 60.5732 1.33301 59.1084 1.12793 57.3018ZM24.9316 41.4375C27.0117 41.4375 28.6377 42.1797 29.8096 43.6641C31.2061 45.4219 31.9043 48.3369 31.9043 52.4092C31.9043 56.4717 31.2012 59.3916 29.7949 61.1689C28.6328 62.6338 27.0117 63.3662 24.9316 63.3662C22.8418 63.3662 21.1572 62.5654 19.8779 60.9639C18.5986 59.3525 17.959 56.4863 17.959 52.3652C17.959 48.3223 18.6621 45.4121 20.0684 43.6348C21.2305 42.1699 22.8516 41.4375 24.9316 41.4375ZM24.9316 44.8506C24.4336 44.8506 23.9893 45.0117 23.5986 45.334C23.208 45.6465 22.9053 46.2129 22.6904 47.0332C22.4072 48.0977 22.2656 49.8896 22.2656 52.4092C22.2656 54.9287 22.3926 56.6621 22.6465 57.6094C22.9004 58.5469 23.2178 59.1719 23.5986 59.4844C23.9893 59.7969 24.4336 59.9531 24.9316 59.9531C25.4297 59.9531 25.874 59.7969 26.2646 59.4844C26.6553 59.1621 26.958 58.5908 27.1729 57.7705C27.4561 56.7158 27.5977 54.9287 27.5977 52.4092C27.5977 49.8896 27.4707 48.1611 27.2168 47.2236C26.9629 46.2764 26.6406 45.6465 26.25 45.334C25.8691 45.0117 25.4297 44.8506 24.9316 44.8506ZM41.6309 41.4375C43.7109 41.4375 45.3369 42.1797 46.5088 43.6641C47.9053 45.4219 48.6035 48.3369 48.6035 52.4092C48.6035 56.4717 47.9004 59.3916 46.4941 61.1689C45.332 62.6338 43.7109 63.3662 41.6309 63.3662C39.541 63.3662 37.8564 62.5654 36.5771 60.9639C35.2979 59.3525 34.6582 56.4863 34.6582 52.3652C34.6582 48.3223 35.3613 45.4121 36.7676 43.6348C37.9297 42.1699 39.5508 41.4375 41.6309 41.4375ZM41.6309 44.8506C41.1328 44.8506 40.6885 45.0117 40.2979 45.334C39.9072 45.6465 39.6045 46.2129 39.3896 47.0332C39.1064 48.0977 38.9648 49.8896 38.9648 52.4092C38.9648 54.9287 39.0918 56.6621 39.3457 57.6094C39.5996 58.5469 39.917 59.1719 40.2979 59.4844C40.6885 59.7969 41.1328 59.9531 41.6309 59.9531C42.1289 59.9531 42.5732 59.7969 42.9639 59.4844C43.3545 59.1621 43.6572 58.5908 43.8721 57.7705C44.1553 56.7158 44.2969 54.9287 44.2969 52.4092C44.2969 49.8896 44.1699 48.1611 43.916 47.2236C43.6621 46.2764 43.3398 45.6465 42.9492 45.334C42.5684 45.0117 42.1289 44.8506 41.6309 44.8506Z" fill="#004D45"/>
<path d="M153.333 57.4775L157.435 57.0527C157.552 57.9805 157.898 58.7178 158.475 59.2646C159.051 59.8018 159.715 60.0703 160.467 60.0703C161.326 60.0703 162.054 59.7236 162.649 59.0303C163.245 58.3271 163.543 57.2725 163.543 55.8662C163.543 54.5479 163.245 53.5615 162.649 52.9072C162.063 52.2432 161.297 51.9111 160.35 51.9111C159.168 51.9111 158.108 52.4336 157.171 53.4785L153.831 52.9951L155.94 41.8184H166.824V45.6709H159.061L158.416 49.3184C159.334 48.8594 160.271 48.6299 161.229 48.6299C163.055 48.6299 164.603 49.2939 165.872 50.6221C167.142 51.9502 167.776 53.6738 167.776 55.793C167.776 57.5605 167.264 59.1377 166.238 60.5244C164.842 62.4189 162.903 63.3662 160.423 63.3662C158.44 63.3662 156.824 62.834 155.574 61.7695C154.324 60.7051 153.577 59.2744 153.333 57.4775ZM176.932 41.4375C179.012 41.4375 180.638 42.1797 181.81 43.6641C183.206 45.4219 183.904 48.3369 183.904 52.4092C183.904 56.4717 183.201 59.3916 181.795 61.1689C180.633 62.6338 179.012 63.3662 176.932 63.3662C174.842 63.3662 173.157 62.5654 171.878 60.9639C170.599 59.3525 169.959 56.4863 169.959 52.3652C169.959 48.3223 170.662 45.4121 172.068 43.6348C173.23 42.1699 174.852 41.4375 176.932 41.4375ZM176.932 44.8506C176.434 44.8506 175.989 45.0117 175.599 45.334C175.208 45.6465 174.905 46.2129 174.69 47.0332C174.407 48.0977 174.266 49.8896 174.266 52.4092C174.266 54.9287 174.393 56.6621 174.646 57.6094C174.9 58.5469 175.218 59.1719 175.599 59.4844C175.989 59.7969 176.434 59.9531 176.932 59.9531C177.43 59.9531 177.874 59.7969 178.265 59.4844C178.655 59.1621 178.958 58.5908 179.173 57.7705C179.456 56.7158 179.598 54.9287 179.598 52.4092C179.598 49.8896 179.471 48.1611 179.217 47.2236C178.963 46.2764 178.641 45.6465 178.25 45.334C177.869 45.0117 177.43 44.8506 176.932 44.8506ZM193.631 41.4375C195.711 41.4375 197.337 42.1797 198.509 43.6641C199.905 45.4219 200.604 48.3369 200.604 52.4092C200.604 56.4717 199.9 59.3916 198.494 61.1689C197.332 62.6338 195.711 63.3662 193.631 63.3662C191.541 63.3662 189.856 62.5654 188.577 60.9639C187.298 59.3525 186.658 56.4863 186.658 52.3652C186.658 48.3223 187.361 45.4121 188.768 43.6348C189.93 42.1699 191.551 41.4375 193.631 41.4375ZM193.631 44.8506C193.133 44.8506 192.688 45.0117 192.298 45.334C191.907 45.6465 191.604 46.2129 191.39 47.0332C191.106 48.0977 190.965 49.8896 190.965 52.4092C190.965 54.9287 191.092 56.6621 191.346 57.6094C191.6 58.5469 191.917 59.1719 192.298 59.4844C192.688 59.7969 193.133 59.9531 193.631 59.9531C194.129 59.9531 194.573 59.7969 194.964 59.4844C195.354 59.1621 195.657 58.5908 195.872 57.7705C196.155 56.7158 196.297 54.9287 196.297 52.4092C196.297 49.8896 196.17 48.1611 195.916 47.2236C195.662 46.2764 195.34 45.6465 194.949 45.334C194.568 45.0117 194.129 44.8506 193.631 44.8506Z" fill="#004D45"/>
<path d="M305.274 45.6416V41.8184H319.352V44.8066C318.189 45.9492 317.008 47.5898 315.807 49.7285C314.605 51.8672 313.688 54.1426 313.053 56.5547C312.428 58.957 312.12 61.1055 312.13 63H308.16C308.229 60.0312 308.839 57.0039 309.991 53.918C311.153 50.832 312.701 48.0732 314.635 45.6416H305.274ZM328.932 41.4375C331.012 41.4375 332.638 42.1797 333.81 43.6641C335.206 45.4219 335.904 48.3369 335.904 52.4092C335.904 56.4717 335.201 59.3916 333.795 61.1689C332.633 62.6338 331.012 63.3662 328.932 63.3662C326.842 63.3662 325.157 62.5654 323.878 60.9639C322.599 59.3525 321.959 56.4863 321.959 52.3652C321.959 48.3223 322.662 45.4121 324.068 43.6348C325.23 42.1699 326.852 41.4375 328.932 41.4375ZM328.932 44.8506C328.434 44.8506 327.989 45.0117 327.599 45.334C327.208 45.6465 326.905 46.2129 326.69 47.0332C326.407 48.0977 326.266 49.8896 326.266 52.4092C326.266 54.9287 326.393 56.6621 326.646 57.6094C326.9 58.5469 327.218 59.1719 327.599 59.4844C327.989 59.7969 328.434 59.9531 328.932 59.9531C329.43 59.9531 329.874 59.7969 330.265 59.4844C330.655 59.1621 330.958 58.5908 331.173 57.7705C331.456 56.7158 331.598 54.9287 331.598 52.4092C331.598 49.8896 331.471 48.1611 331.217 47.2236C330.963 46.2764 330.641 45.6465 330.25 45.334C329.869 45.0117 329.43 44.8506 328.932 44.8506ZM345.631 41.4375C347.711 41.4375 349.337 42.1797 350.509 43.6641C351.905 45.4219 352.604 48.3369 352.604 52.4092C352.604 56.4717 351.9 59.3916 350.494 61.1689C349.332 62.6338 347.711 63.3662 345.631 63.3662C343.541 63.3662 341.856 62.5654 340.577 60.9639C339.298 59.3525 338.658 56.4863 338.658 52.3652C338.658 48.3223 339.361 45.4121 340.768 43.6348C341.93 42.1699 343.551 41.4375 345.631 41.4375ZM345.631 44.8506C345.133 44.8506 344.688 45.0117 344.298 45.334C343.907 45.6465 343.604 46.2129 343.39 47.0332C343.106 48.0977 342.965 49.8896 342.965 52.4092C342.965 54.9287 343.092 56.6621 343.346 57.6094C343.6 58.5469 343.917 59.1719 344.298 59.4844C344.688 59.7969 345.133 59.9531 345.631 59.9531C346.129 59.9531 346.573 59.7969 346.964 59.4844C347.354 59.1621 347.657 58.5908 347.872 57.7705C348.155 56.7158 348.297 54.9287 348.297 52.4092C348.297 49.8896 348.17 48.1611 347.916 47.2236C347.662 46.2764 347.34 45.6465 346.949 45.334C346.568 45.0117 346.129 44.8506 345.631 44.8506Z" fill="#004D45"/>
<path d="M457.362 58.0342L461.347 57.5947C461.444 58.4053 461.698 59.0059 462.108 59.3965C462.519 59.7871 463.061 59.9824 463.734 59.9824C464.584 59.9824 465.307 59.5918 465.902 58.8105C466.498 58.0293 466.879 56.4082 467.045 53.9473C466.01 55.1484 464.716 55.749 463.163 55.749C461.474 55.749 460.014 55.0996 458.783 53.8008C457.562 52.4922 456.952 50.793 456.952 48.7031C456.952 46.5254 457.597 44.7725 458.886 43.4443C460.185 42.1064 461.835 41.4375 463.837 41.4375C466.015 41.4375 467.802 42.2822 469.198 43.9717C470.595 45.6514 471.293 48.4199 471.293 52.2773C471.293 56.2031 470.565 59.0352 469.11 60.7734C467.655 62.5117 465.761 63.3809 463.427 63.3809C461.747 63.3809 460.39 62.9365 459.354 62.0479C458.319 61.1494 457.655 59.8115 457.362 58.0342ZM466.679 49.04C466.679 47.7119 466.371 46.6816 465.756 45.9492C465.15 45.2168 464.447 44.8506 463.646 44.8506C462.885 44.8506 462.25 45.1533 461.742 45.7588C461.244 46.3545 460.995 47.3359 460.995 48.7031C460.995 50.0898 461.269 51.1104 461.815 51.7646C462.362 52.4092 463.046 52.7314 463.866 52.7314C464.657 52.7314 465.321 52.4189 465.858 51.7939C466.405 51.1689 466.679 50.251 466.679 49.04ZM480.932 41.4375C483.012 41.4375 484.638 42.1797 485.81 43.6641C487.206 45.4219 487.904 48.3369 487.904 52.4092C487.904 56.4717 487.201 59.3916 485.795 61.1689C484.633 62.6338 483.012 63.3662 480.932 63.3662C478.842 63.3662 477.157 62.5654 475.878 60.9639C474.599 59.3525 473.959 56.4863 473.959 52.3652C473.959 48.3223 474.662 45.4121 476.068 43.6348C477.23 42.1699 478.852 41.4375 480.932 41.4375ZM480.932 44.8506C480.434 44.8506 479.989 45.0117 479.599 45.334C479.208 45.6465 478.905 46.2129 478.69 47.0332C478.407 48.0977 478.266 49.8896 478.266 52.4092C478.266 54.9287 478.393 56.6621 478.646 57.6094C478.9 58.5469 479.218 59.1719 479.599 59.4844C479.989 59.7969 480.434 59.9531 480.932 59.9531C481.43 59.9531 481.874 59.7969 482.265 59.4844C482.655 59.1621 482.958 58.5908 483.173 57.7705C483.456 56.7158 483.598 54.9287 483.598 52.4092C483.598 49.8896 483.471 48.1611 483.217 47.2236C482.963 46.2764 482.641 45.6465 482.25 45.334C481.869 45.0117 481.43 44.8506 480.932 44.8506ZM497.631 41.4375C499.711 41.4375 501.337 42.1797 502.509 43.6641C503.905 45.4219 504.604 48.3369 504.604 52.4092C504.604 56.4717 503.9 59.3916 502.494 61.1689C501.332 62.6338 499.711 63.3662 497.631 63.3662C495.541 63.3662 493.856 62.5654 492.577 60.9639C491.298 59.3525 490.658 56.4863 490.658 52.3652C490.658 48.3223 491.361 45.4121 492.768 43.6348C493.93 42.1699 495.551 41.4375 497.631 41.4375ZM497.631 44.8506C497.133 44.8506 496.688 45.0117 496.298 45.334C495.907 45.6465 495.604 46.2129 495.39 47.0332C495.106 48.0977 494.965 49.8896 494.965 52.4092C494.965 54.9287 495.092 56.6621 495.346 57.6094C495.6 58.5469 495.917 59.1719 496.298 59.4844C496.688 59.7969 497.133 59.9531 497.631 59.9531C498.129 59.9531 498.573 59.7969 498.964 59.4844C499.354 59.1621 499.657 58.5908 499.872 57.7705C500.155 56.7158 500.297 54.9287 500.297 52.4092C500.297 49.8896 500.17 48.1611 499.916 47.2236C499.662 46.2764 499.34 45.6465 498.949 45.334C498.568 45.0117 498.129 44.8506 497.631 44.8506Z" fill="#004D45"/>
<path d="M610.807 63H606.69V47.4873C605.187 48.8936 603.414 49.9336 601.373 50.6074V46.8721C602.447 46.5205 603.614 45.8564 604.874 44.8799C606.134 43.8936 606.998 42.7461 607.467 41.4375H610.807V63ZM625.836 63H621.72V47.4873C620.216 48.8936 618.443 49.9336 616.402 50.6074V46.8721C617.477 46.5205 618.644 45.8564 619.903 44.8799C621.163 43.8936 622.027 42.7461 622.496 41.4375H625.836V63ZM638.961 41.4375C641.041 41.4375 642.667 42.1797 643.839 43.6641C645.235 45.4219 645.934 48.3369 645.934 52.4092C645.934 56.4717 645.23 59.3916 643.824 61.1689C642.662 62.6338 641.041 63.3662 638.961 63.3662C636.871 63.3662 635.187 62.5654 633.907 60.9639C632.628 59.3525 631.988 56.4863 631.988 52.3652C631.988 48.3223 632.691 45.4121 634.098 43.6348C635.26 42.1699 636.881 41.4375 638.961 41.4375ZM638.961 44.8506C638.463 44.8506 638.019 45.0117 637.628 45.334C637.237 45.6465 636.935 46.2129 636.72 47.0332C636.437 48.0977 636.295 49.8896 636.295 52.4092C636.295 54.9287 636.422 56.6621 636.676 57.6094C636.93 58.5469 637.247 59.1719 637.628 59.4844C638.019 59.7969 638.463 59.9531 638.961 59.9531C639.459 59.9531 639.903 59.7969 640.294 59.4844C640.685 59.1621 640.987 58.5908 641.202 57.7705C641.485 56.7158 641.627 54.9287 641.627 52.4092C641.627 49.8896 641.5 48.1611 641.246 47.2236C640.992 46.2764 640.67 45.6465 640.279 45.334C639.898 45.0117 639.459 44.8506 638.961 44.8506ZM655.66 41.4375C657.74 41.4375 659.366 42.1797 660.538 43.6641C661.935 45.4219 662.633 48.3369 662.633 52.4092C662.633 56.4717 661.93 59.3916 660.523 61.1689C659.361 62.6338 657.74 63.3662 655.66 63.3662C653.57 63.3662 651.886 62.5654 650.606 60.9639C649.327 59.3525 648.688 56.4863 648.688 52.3652C648.688 48.3223 649.391 45.4121 650.797 43.6348C651.959 42.1699 653.58 41.4375 655.66 41.4375ZM655.66 44.8506C655.162 44.8506 654.718 45.0117 654.327 45.334C653.937 45.6465 653.634 46.2129 653.419 47.0332C653.136 48.0977 652.994 49.8896 652.994 52.4092C652.994 54.9287 653.121 56.6621 653.375 57.6094C653.629 58.5469 653.946 59.1719 654.327 59.4844C654.718 59.7969 655.162 59.9531 655.66 59.9531C656.158 59.9531 656.603 59.7969 656.993 59.4844C657.384 59.1621 657.687 58.5908 657.901 57.7705C658.185 56.7158 658.326 54.9287 658.326 52.4092C658.326 49.8896 658.199 48.1611 657.945 47.2236C657.691 46.2764 657.369 45.6465 656.979 45.334C656.598 45.0117 656.158 44.8506 655.66 44.8506Z" fill="#004D45"/>
<path d="M763.807 63H759.69V47.4873C758.187 48.8936 756.414 49.9336 754.373 50.6074V46.8721C755.447 46.5205 756.614 45.8564 757.874 44.8799C759.134 43.8936 759.998 42.7461 760.467 41.4375H763.807V63ZM769.827 57.3018L773.812 56.8184C773.938 57.834 774.28 58.6104 774.837 59.1475C775.394 59.6846 776.067 59.9531 776.858 59.9531C777.708 59.9531 778.421 59.6309 778.997 58.9863C779.583 58.3418 779.876 57.4727 779.876 56.3789C779.876 55.3438 779.598 54.5234 779.041 53.918C778.484 53.3125 777.806 53.0098 777.005 53.0098C776.478 53.0098 775.848 53.1123 775.115 53.3174L775.569 49.9629C776.683 49.9922 777.532 49.7529 778.118 49.2451C778.704 48.7275 778.997 48.0439 778.997 47.1943C778.997 46.4717 778.782 45.8955 778.353 45.4658C777.923 45.0361 777.352 44.8213 776.639 44.8213C775.936 44.8213 775.335 45.0654 774.837 45.5537C774.339 46.042 774.036 46.7549 773.929 47.6924L770.135 47.0479C770.398 45.749 770.794 44.7139 771.321 43.9424C771.858 43.1611 772.601 42.5508 773.548 42.1113C774.505 41.6621 775.574 41.4375 776.756 41.4375C778.777 41.4375 780.398 42.082 781.619 43.3711C782.625 44.4258 783.128 45.6172 783.128 46.9453C783.128 48.8301 782.098 50.334 780.037 51.457C781.268 51.7207 782.249 52.3115 782.981 53.2295C783.724 54.1475 784.095 55.2559 784.095 56.5547C784.095 58.4395 783.406 60.0459 782.029 61.374C780.652 62.7021 778.938 63.3662 776.888 63.3662C774.944 63.3662 773.333 62.8096 772.054 61.6963C770.774 60.5732 770.032 59.1084 769.827 57.3018ZM793.631 41.4375C795.711 41.4375 797.337 42.1797 798.509 43.6641C799.905 45.4219 800.604 48.3369 800.604 52.4092C800.604 56.4717 799.9 59.3916 798.494 61.1689C797.332 62.6338 795.711 63.3662 793.631 63.3662C791.541 63.3662 789.856 62.5654 788.577 60.9639C787.298 59.3525 786.658 56.4863 786.658 52.3652C786.658 48.3223 787.361 45.4121 788.768 43.6348C789.93 42.1699 791.551 41.4375 793.631 41.4375ZM793.631 44.8506C793.133 44.8506 792.688 45.0117 792.298 45.334C791.907 45.6465 791.604 46.2129 791.39 47.0332C791.106 48.0977 790.965 49.8896 790.965 52.4092C790.965 54.9287 791.092 56.6621 791.346 57.6094C791.6 58.5469 791.917 59.1719 792.298 59.4844C792.688 59.7969 793.133 59.9531 793.631 59.9531C794.129 59.9531 794.573 59.7969 794.964 59.4844C795.354 59.1621 795.657 58.5908 795.872 57.7705C796.155 56.7158 796.297 54.9287 796.297 52.4092C796.297 49.8896 796.17 48.1611 795.916 47.2236C795.662 46.2764 795.34 45.6465 794.949 45.334C794.568 45.0117 794.129 44.8506 793.631 44.8506ZM810.33 41.4375C812.41 41.4375 814.036 42.1797 815.208 43.6641C816.604 45.4219 817.303 48.3369 817.303 52.4092C817.303 56.4717 816.6 59.3916 815.193 61.1689C814.031 62.6338 812.41 63.3662 810.33 63.3662C808.24 63.3662 806.556 62.5654 805.276 60.9639C803.997 59.3525 803.357 56.4863 803.357 52.3652C803.357 48.3223 804.061 45.4121 805.467 43.6348C806.629 42.1699 808.25 41.4375 810.33 41.4375ZM810.33 44.8506C809.832 44.8506 809.388 45.0117 808.997 45.334C808.606 45.6465 808.304 46.2129 808.089 47.0332C807.806 48.0977 807.664 49.8896 807.664 52.4092C807.664 54.9287 807.791 56.6621 808.045 57.6094C808.299 58.5469 808.616 59.1719 808.997 59.4844C809.388 59.7969 809.832 59.9531 810.33 59.9531C810.828 59.9531 811.272 59.7969 811.663 59.4844C812.054 59.1621 812.356 58.5908 812.571 57.7705C812.854 56.7158 812.996 54.9287 812.996 52.4092C812.996 49.8896 812.869 48.1611 812.615 47.2236C812.361 46.2764 812.039 45.6465 811.648 45.334C811.268 45.0117 810.828 44.8506 810.33 44.8506Z" fill="#004D45"/>
<path d="M915.807 63H911.69V47.4873C910.187 48.8936 908.414 49.9336 906.373 50.6074V46.8721C907.447 46.5205 908.614 45.8564 909.874 44.8799C911.134 43.8936 911.998 42.7461 912.467 41.4375H915.807V63ZM922.032 57.4775L926.134 57.0527C926.251 57.9805 926.598 58.7178 927.174 59.2646C927.75 59.8018 928.414 60.0703 929.166 60.0703C930.025 60.0703 930.753 59.7236 931.349 59.0303C931.944 58.3271 932.242 57.2725 932.242 55.8662C932.242 54.5479 931.944 53.5615 931.349 52.9072C930.763 52.2432 929.996 51.9111 929.049 51.9111C927.867 51.9111 926.808 52.4336 925.87 53.4785L922.53 52.9951L924.64 41.8184H935.523V45.6709H927.76L927.115 49.3184C928.033 48.8594 928.971 48.6299 929.928 48.6299C931.754 48.6299 933.302 49.2939 934.571 50.6221C935.841 51.9502 936.476 53.6738 936.476 55.793C936.476 57.5605 935.963 59.1377 934.938 60.5244C933.541 62.4189 931.603 63.3662 929.122 63.3662C927.14 63.3662 925.523 62.834 924.273 61.7695C923.023 60.7051 922.276 59.2744 922.032 57.4775ZM945.631 41.4375C947.711 41.4375 949.337 42.1797 950.509 43.6641C951.905 45.4219 952.604 48.3369 952.604 52.4092C952.604 56.4717 951.9 59.3916 950.494 61.1689C949.332 62.6338 947.711 63.3662 945.631 63.3662C943.541 63.3662 941.856 62.5654 940.577 60.9639C939.298 59.3525 938.658 56.4863 938.658 52.3652C938.658 48.3223 939.361 45.4121 940.768 43.6348C941.93 42.1699 943.551 41.4375 945.631 41.4375ZM945.631 44.8506C945.133 44.8506 944.688 45.0117 944.298 45.334C943.907 45.6465 943.604 46.2129 943.39 47.0332C943.106 48.0977 942.965 49.8896 942.965 52.4092C942.965 54.9287 943.092 56.6621 943.346 57.6094C943.6 58.5469 943.917 59.1719 944.298 59.4844C944.688 59.7969 945.133 59.9531 945.631 59.9531C946.129 59.9531 946.573 59.7969 946.964 59.4844C947.354 59.1621 947.657 58.5908 947.872 57.7705C948.155 56.7158 948.297 54.9287 948.297 52.4092C948.297 49.8896 948.17 48.1611 947.916 47.2236C947.662 46.2764 947.34 45.6465 946.949 45.334C946.568 45.0117 946.129 44.8506 945.631 44.8506ZM962.33 41.4375C964.41 41.4375 966.036 42.1797 967.208 43.6641C968.604 45.4219 969.303 48.3369 969.303 52.4092C969.303 56.4717 968.6 59.3916 967.193 61.1689C966.031 62.6338 964.41 63.3662 962.33 63.3662C960.24 63.3662 958.556 62.5654 957.276 60.9639C955.997 59.3525 955.357 56.4863 955.357 52.3652C955.357 48.3223 956.061 45.4121 957.467 43.6348C958.629 42.1699 960.25 41.4375 962.33 41.4375ZM962.33 44.8506C961.832 44.8506 961.388 45.0117 960.997 45.334C960.606 45.6465 960.304 46.2129 960.089 47.0332C959.806 48.0977 959.664 49.8896 959.664 52.4092C959.664 54.9287 959.791 56.6621 960.045 57.6094C960.299 58.5469 960.616 59.1719 960.997 59.4844C961.388 59.7969 961.832 59.9531 962.33 59.9531C962.828 59.9531 963.272 59.7969 963.663 59.4844C964.054 59.1621 964.356 58.5908 964.571 57.7705C964.854 56.7158 964.996 54.9287 964.996 52.4092C964.996 49.8896 964.869 48.1611 964.615 47.2236C964.361 46.2764 964.039 45.6465 963.648 45.334C963.268 45.0117 962.828 44.8506 962.33 44.8506Z" fill="#004D45"/>
<path d="M1067.81 63H1063.69V47.4873C1062.19 48.8936 1060.41 49.9336 1058.37 50.6074V46.8721C1059.45 46.5205 1060.61 45.8564 1061.87 44.8799C1063.13 43.8936 1064 42.7461 1064.47 41.4375H1067.81V63ZM1073.97 45.6416V41.8184H1088.05V44.8066C1086.89 45.9492 1085.71 47.5898 1084.51 49.7285C1083.3 51.8672 1082.39 54.1426 1081.75 56.5547C1081.13 58.957 1080.82 61.1055 1080.83 63H1076.86C1076.93 60.0312 1077.54 57.0039 1078.69 53.918C1079.85 50.832 1081.4 48.0732 1083.33 45.6416H1073.97ZM1097.63 41.4375C1099.71 41.4375 1101.34 42.1797 1102.51 43.6641C1103.91 45.4219 1104.6 48.3369 1104.6 52.4092C1104.6 56.4717 1103.9 59.3916 1102.49 61.1689C1101.33 62.6338 1099.71 63.3662 1097.63 63.3662C1095.54 63.3662 1093.86 62.5654 1092.58 60.9639C1091.3 59.3525 1090.66 56.4863 1090.66 52.3652C1090.66 48.3223 1091.36 45.4121 1092.77 43.6348C1093.93 42.1699 1095.55 41.4375 1097.63 41.4375ZM1097.63 44.8506C1097.13 44.8506 1096.69 45.0117 1096.3 45.334C1095.91 45.6465 1095.6 46.2129 1095.39 47.0332C1095.11 48.0977 1094.96 49.8896 1094.96 52.4092C1094.96 54.9287 1095.09 56.6621 1095.35 57.6094C1095.6 58.5469 1095.92 59.1719 1096.3 59.4844C1096.69 59.7969 1097.13 59.9531 1097.63 59.9531C1098.13 59.9531 1098.57 59.7969 1098.96 59.4844C1099.35 59.1621 1099.66 58.5908 1099.87 57.7705C1100.16 56.7158 1100.3 54.9287 1100.3 52.4092C1100.3 49.8896 1100.17 48.1611 1099.92 47.2236C1099.66 46.2764 1099.34 45.6465 1098.95 45.334C1098.57 45.0117 1098.13 44.8506 1097.63 44.8506ZM1114.33 41.4375C1116.41 41.4375 1118.04 42.1797 1119.21 43.6641C1120.6 45.4219 1121.3 48.3369 1121.3 52.4092C1121.3 56.4717 1120.6 59.3916 1119.19 61.1689C1118.03 62.6338 1116.41 63.3662 1114.33 63.3662C1112.24 63.3662 1110.56 62.5654 1109.28 60.9639C1108 59.3525 1107.36 56.4863 1107.36 52.3652C1107.36 48.3223 1108.06 45.4121 1109.47 43.6348C1110.63 42.1699 1112.25 41.4375 1114.33 41.4375ZM1114.33 44.8506C1113.83 44.8506 1113.39 45.0117 1113 45.334C1112.61 45.6465 1112.3 46.2129 1112.09 47.0332C1111.81 48.0977 1111.66 49.8896 1111.66 52.4092C1111.66 54.9287 1111.79 56.6621 1112.04 57.6094C1112.3 58.5469 1112.62 59.1719 1113 59.4844C1113.39 59.7969 1113.83 59.9531 1114.33 59.9531C1114.83 59.9531 1115.27 59.7969 1115.66 59.4844C1116.05 59.1621 1116.36 58.5908 1116.57 57.7705C1116.85 56.7158 1117 54.9287 1117 52.4092C1117 49.8896 1116.87 48.1611 1116.62 47.2236C1116.36 46.2764 1116.04 45.6465 1115.65 45.334C1115.27 45.0117 1114.83 44.8506 1114.33 44.8506Z" fill="#004D45"/>
<path d="M1217.81 63H1213.69V47.4873C1212.19 48.8936 1210.41 49.9336 1208.37 50.6074V46.8721C1209.45 46.5205 1210.61 45.8564 1211.87 44.8799C1213.13 43.8936 1214 42.7461 1214.47 41.4375H1217.81V63ZM1224.06 58.0342L1228.05 57.5947C1228.14 58.4053 1228.4 59.0059 1228.81 59.3965C1229.22 59.7871 1229.76 59.9824 1230.43 59.9824C1231.28 59.9824 1232.01 59.5918 1232.6 58.8105C1233.2 58.0293 1233.58 56.4082 1233.74 53.9473C1232.71 55.1484 1231.42 55.749 1229.86 55.749C1228.17 55.749 1226.71 55.0996 1225.48 53.8008C1224.26 52.4922 1223.65 50.793 1223.65 48.7031C1223.65 46.5254 1224.3 44.7725 1225.58 43.4443C1226.88 42.1064 1228.53 41.4375 1230.54 41.4375C1232.71 41.4375 1234.5 42.2822 1235.9 43.9717C1237.29 45.6514 1237.99 48.4199 1237.99 52.2773C1237.99 56.2031 1237.26 59.0352 1235.81 60.7734C1234.35 62.5117 1232.46 63.3809 1230.13 63.3809C1228.45 63.3809 1227.09 62.9365 1226.05 62.0479C1225.02 61.1494 1224.35 59.8115 1224.06 58.0342ZM1233.38 49.04C1233.38 47.7119 1233.07 46.6816 1232.46 45.9492C1231.85 45.2168 1231.15 44.8506 1230.35 44.8506C1229.58 44.8506 1228.95 45.1533 1228.44 45.7588C1227.94 46.3545 1227.69 47.3359 1227.69 48.7031C1227.69 50.0898 1227.97 51.1104 1228.51 51.7646C1229.06 52.4092 1229.75 52.7314 1230.57 52.7314C1231.36 52.7314 1232.02 52.4189 1232.56 51.7939C1233.1 51.1689 1233.38 50.251 1233.38 49.04ZM1247.63 41.4375C1249.71 41.4375 1251.34 42.1797 1252.51 43.6641C1253.91 45.4219 1254.6 48.3369 1254.6 52.4092C1254.6 56.4717 1253.9 59.3916 1252.49 61.1689C1251.33 62.6338 1249.71 63.3662 1247.63 63.3662C1245.54 63.3662 1243.86 62.5654 1242.58 60.9639C1241.3 59.3525 1240.66 56.4863 1240.66 52.3652C1240.66 48.3223 1241.36 45.4121 1242.77 43.6348C1243.93 42.1699 1245.55 41.4375 1247.63 41.4375ZM1247.63 44.8506C1247.13 44.8506 1246.69 45.0117 1246.3 45.334C1245.91 45.6465 1245.6 46.2129 1245.39 47.0332C1245.11 48.0977 1244.96 49.8896 1244.96 52.4092C1244.96 54.9287 1245.09 56.6621 1245.35 57.6094C1245.6 58.5469 1245.92 59.1719 1246.3 59.4844C1246.69 59.7969 1247.13 59.9531 1247.63 59.9531C1248.13 59.9531 1248.57 59.7969 1248.96 59.4844C1249.35 59.1621 1249.66 58.5908 1249.87 57.7705C1250.16 56.7158 1250.3 54.9287 1250.3 52.4092C1250.3 49.8896 1250.17 48.1611 1249.92 47.2236C1249.66 46.2764 1249.34 45.6465 1248.95 45.334C1248.57 45.0117 1248.13 44.8506 1247.63 44.8506ZM1264.33 41.4375C1266.41 41.4375 1268.04 42.1797 1269.21 43.6641C1270.6 45.4219 1271.3 48.3369 1271.3 52.4092C1271.3 56.4717 1270.6 59.3916 1269.19 61.1689C1268.03 62.6338 1266.41 63.3662 1264.33 63.3662C1262.24 63.3662 1260.56 62.5654 1259.28 60.9639C1258 59.3525 1257.36 56.4863 1257.36 52.3652C1257.36 48.3223 1258.06 45.4121 1259.47 43.6348C1260.63 42.1699 1262.25 41.4375 1264.33 41.4375ZM1264.33 44.8506C1263.83 44.8506 1263.39 45.0117 1263 45.334C1262.61 45.6465 1262.3 46.2129 1262.09 47.0332C1261.81 48.0977 1261.66 49.8896 1261.66 52.4092C1261.66 54.9287 1261.79 56.6621 1262.04 57.6094C1262.3 58.5469 1262.62 59.1719 1263 59.4844C1263.39 59.7969 1263.83 59.9531 1264.33 59.9531C1264.83 59.9531 1265.27 59.7969 1265.66 59.4844C1266.05 59.1621 1266.36 58.5908 1266.57 57.7705C1266.85 56.7158 1267 54.9287 1267 52.4092C1267 49.8896 1266.87 48.1611 1266.62 47.2236C1266.36 46.2764 1266.04 45.6465 1265.65 45.334C1265.27 45.0117 1264.83 44.8506 1264.33 44.8506Z" fill="#004D45"/>
<line x1="23" y1="1.5" x2="1240" y2="1.5" stroke="#26A69A" stroke-width="3"/>
<line x1="24.5" y1="18" x2="24.5" y2="2" stroke="#26A69A" stroke-width="3"/>
<line x1="176.5" y1="18" x2="176.5" y2="2" stroke="#26A69A" stroke-width="3"/>
<line x1="328.5" y1="18" x2="328.5" y2="2" stroke="#26A69A" stroke-width="3"/>
<line x1="480.5" y1="18" x2="480.5" y2="2" stroke="#26A69A" stroke-width="3"/>
<line x1="632.5" y1="18" x2="632.5" y2="2" stroke="#26A69A" stroke-width="3"/>
<line x1="784.5" y1="18" x2="784.5" y2="2" stroke="#26A69A" stroke-width="3"/>
<line x1="936.5" y1="18" x2="936.5" y2="2" stroke="#26A69A" stroke-width="3"/>
<line x1="1088.5" y1="18" x2="1088.5" y2="2" stroke="#26A69A" stroke-width="3"/>
<line x1="1238.5" y1="18" x2="1238.5" y2="2" stroke="#26A69A" stroke-width="3"/>
</svg>
